<svg width="64" height="30" viewBox="0 0 64 30" fill="none" xmlns="http://www.w3.org/2000/svg">
<path fill-rule="evenodd" clip-rule="evenodd" d="M6 0C2.68629 0 0 2.68629 0 6V20C0 23.3137 2.68629 26 6 26H28.9208L32 30L35.0792 26H58C61.3137 26 64 23.3137 64 20V6C64 2.68629 61.3137 0 58 0H6Z" fill="#1D1D1D"/>
<rect width="64" height="26" rx="6" fill="#1D1D1D"/>
<path d="M16.758 11C16.3801 8.91193 14.7097 7.67898 12.6614 7.67898C10.0563 7.67898 8.16706 9.6875 8.16706 12.9091C8.16706 16.1307 10.0563 18.1392 12.6614 18.1392C14.7097 18.1392 16.3801 16.9062 16.758 14.8182H15.525C15.2267 16.2301 14.0137 16.9858 12.6614 16.9858C10.812 16.9858 9.36025 15.554 9.36025 12.9091C9.36025 10.2642 10.812 8.83239 12.6614 8.83239C14.0137 8.83239 15.2267 9.58807 15.525 11H16.758ZM22.1135 18.1591C24.1817 18.1591 25.5737 16.5881 25.5737 14.2216C25.5737 11.8352 24.1817 10.2642 22.1135 10.2642C20.0453 10.2642 18.6533 11.8352 18.6533 14.2216C18.6533 16.5881 20.0453 18.1591 22.1135 18.1591ZM22.1135 17.1051C20.5425 17.1051 19.8266 15.7528 19.8266 14.2216C19.8266 12.6903 20.5425 11.3182 22.1135 11.3182C23.6845 11.3182 24.4005 12.6903 24.4005 14.2216C24.4005 15.7528 23.6845 17.1051 22.1135 17.1051ZM27.7848 20.8636H28.9581V16.8267H29.0575C29.316 17.2443 29.8132 18.1591 31.2848 18.1591C33.1939 18.1591 34.5262 16.6278 34.5262 14.2017C34.5262 11.7955 33.1939 10.2642 31.2649 10.2642C29.7734 10.2642 29.316 11.179 29.0575 11.5767H28.9183V10.3636H27.7848V20.8636ZM28.9382 14.1818C28.9382 12.4716 29.6939 11.3182 31.1257 11.3182C32.6171 11.3182 33.3529 12.571 33.3529 14.1818C33.3529 15.8125 32.5973 17.1051 31.1257 17.1051C29.7137 17.1051 28.9382 15.9119 28.9382 14.1818ZM36.736 18H37.9093V10.3636H36.736V18ZM37.3326 9.09091C37.79 9.09091 38.1678 8.73295 38.1678 8.29545C38.1678 7.85795 37.79 7.5 37.3326 7.5C36.8752 7.5 36.4974 7.85795 36.4974 8.29545C36.4974 8.73295 36.8752 9.09091 37.3326 9.09091ZM43.68 18.1591C45.2311 18.1591 46.3646 17.3835 46.7226 16.2301L45.5891 15.9119C45.2908 16.7074 44.5997 17.1051 43.68 17.1051C42.3029 17.1051 41.3533 16.2152 41.2986 14.5795H46.8419V14.0824C46.8419 11.2386 45.1516 10.2642 43.5607 10.2642C41.4925 10.2642 40.1203 11.8949 40.1203 14.2415C40.1203 16.5881 41.4726 18.1591 43.68 18.1591ZM41.2986 13.5653C41.3781 12.3771 42.2183 11.3182 43.5607 11.3182C44.8334 11.3182 45.6487 12.2727 45.6487 13.5653H41.2986ZM51.9302 18.1591C53.4018 18.1591 53.899 17.2443 54.1575 16.8267H54.2967V18H55.4302V7.81818H54.2569V11.5767H54.1575C53.899 11.179 53.4416 10.2642 51.9501 10.2642C50.0211 10.2642 48.6888 11.7955 48.6888 14.2017C48.6888 16.6278 50.0211 18.1591 51.9302 18.1591ZM52.0893 17.1051C50.6177 17.1051 49.8621 15.8125 49.8621 14.1818C49.8621 12.571 50.5979 11.3182 52.0893 11.3182C53.5211 11.3182 54.2768 12.4716 54.2768 14.1818C54.2768 15.9119 53.5013 17.1051 52.0893 17.1051Z" fill="white"/>
</svg>
