<svg width="13" height="13" viewBox="0 0 13 13" fill="none" xmlns="http://www.w3.org/2000/svg">
<mask id="path-1-inside-1_1064:5205" fill="white">
<path fill-rule="evenodd" clip-rule="evenodd" d="M6.08834 12.1767C9.45083 12.1767 12.1767 9.45083 12.1767 6.08834C12.1767 2.72584 9.45083 0 6.08834 0C2.72584 0 0 2.72584 0 6.08834C0 9.45083 2.72584 12.1767 6.08834 12.1767ZM5.74008 3.19858C5.85093 3.09466 5.98926 3.04454 6.14651 3.04454C6.30302 3.04454 6.43984 3.0943 6.54614 3.19987C6.6582 3.30562 6.7123 3.44329 6.7123 3.60216C6.7123 3.76564 6.65885 3.90808 6.54747 4.01946C6.44099 4.12594 6.30368 4.17612 6.14651 4.17612C5.98926 4.17612 5.85093 4.12599 5.74008 4.02207L5.73459 4.01692C5.6298 3.90514 5.58072 3.76344 5.58072 3.60216C5.58072 3.445 5.6309 3.30768 5.73738 3.2012L5.74008 3.19858ZM5.07443 4.85739H6.60614V8.35478C6.60614 8.44888 6.60817 8.52119 6.61195 8.57287C6.61361 8.59555 6.61551 8.6129 6.61744 8.6256C6.63056 8.63008 6.65153 8.6351 6.68275 8.63905L7.23492 8.69929V9.13288H5.07443V8.69929L5.6266 8.63905C5.65782 8.6351 5.67879 8.63008 5.69191 8.6256C5.69384 8.6129 5.69574 8.59555 5.6974 8.57287C5.70118 8.52119 5.70321 8.44888 5.70321 8.35478V5.6355C5.70321 5.5414 5.70118 5.46909 5.6974 5.4174C5.69574 5.39472 5.69384 5.37737 5.69191 5.36467C5.67894 5.36024 5.65828 5.35528 5.62762 5.35136L5.07443 5.30107V4.85739Z"/>
</mask>
<path fill-rule="evenodd" clip-rule="evenodd" d="M6.08834 12.1767C9.45083 12.1767 12.1767 9.45083 12.1767 6.08834C12.1767 2.72584 9.45083 0 6.08834 0C2.72584 0 0 2.72584 0 6.08834C0 9.45083 2.72584 12.1767 6.08834 12.1767ZM5.74008 3.19858C5.85093 3.09466 5.98926 3.04454 6.14651 3.04454C6.30302 3.04454 6.43984 3.0943 6.54614 3.19987C6.6582 3.30562 6.7123 3.44329 6.7123 3.60216C6.7123 3.76564 6.65885 3.90808 6.54747 4.01946C6.44099 4.12594 6.30368 4.17612 6.14651 4.17612C5.98926 4.17612 5.85093 4.12599 5.74008 4.02207L5.73459 4.01692C5.6298 3.90514 5.58072 3.76344 5.58072 3.60216C5.58072 3.445 5.6309 3.30768 5.73738 3.2012L5.74008 3.19858ZM5.07443 4.85739H6.60614V8.35478C6.60614 8.44888 6.60817 8.52119 6.61195 8.57287C6.61361 8.59555 6.61551 8.6129 6.61744 8.6256C6.63056 8.63008 6.65153 8.6351 6.68275 8.63905L7.23492 8.69929V9.13288H5.07443V8.69929L5.6266 8.63905C5.65782 8.6351 5.67879 8.63008 5.69191 8.6256C5.69384 8.6129 5.69574 8.59555 5.6974 8.57287C5.70118 8.52119 5.70321 8.44888 5.70321 8.35478V5.6355C5.70321 5.5414 5.70118 5.46909 5.6974 5.4174C5.69574 5.39472 5.69384 5.37737 5.69191 5.36467C5.67894 5.36024 5.65828 5.35528 5.62762 5.35136L5.07443 5.30107V4.85739Z" fill="white"/>
<path d="M5.74008 3.19858L5.32966 2.7608L5.32274 2.76751L5.74008 3.19858ZM6.54614 3.19987L6.12333 3.62558L6.12876 3.63097L6.13432 3.63623L6.54614 3.19987ZM5.74008 4.02207L6.15045 3.58435L6.15044 3.58434L5.74008 4.02207ZM5.73459 4.01692L5.29686 4.42729L5.31011 4.44141L5.32423 4.45465L5.73459 4.01692ZM5.73738 3.2012L5.31998 2.77007L5.31312 2.77693L5.73738 3.2012ZM6.60614 4.85739H7.20614V4.25739H6.60614V4.85739ZM5.07443 4.85739V4.25739H4.47443V4.85739H5.07443ZM6.61195 8.57287L6.01355 8.61665L6.01355 8.61667L6.61195 8.57287ZM6.61744 8.6256L6.02426 8.71575L6.07894 9.0756L6.42335 9.19334L6.61744 8.6256ZM6.68275 8.63905L6.60753 9.2344L6.61768 9.23551L6.68275 8.63905ZM7.23492 8.69929H7.83492V8.16118L7.29999 8.10282L7.23492 8.69929ZM7.23492 9.13288V9.73288H7.83492V9.13288H7.23492ZM5.07443 9.13288H4.47443V9.73288H5.07443V9.13288ZM5.07443 8.69929L5.00936 8.10282L4.47443 8.16118V8.69929H5.07443ZM5.6266 8.63905L5.69168 9.2356L5.70181 9.23432L5.6266 8.63905ZM5.69191 8.6256L5.886 9.19334L6.23039 9.0756L6.28509 8.71577L5.69191 8.6256ZM5.6974 8.57287L6.2958 8.61666V8.61666L5.6974 8.57287ZM5.6974 5.4174L6.2958 5.37362V5.37361L5.6974 5.4174ZM5.69191 5.36467L6.28509 5.2745L6.23039 4.91468L5.88601 4.79694L5.69191 5.36467ZM5.62762 5.35136L5.70382 4.75621L5.6929 4.75482L5.68194 4.75382L5.62762 5.35136ZM5.07443 5.30107H4.47443V5.84899L5.02011 5.8986L5.07443 5.30107ZM11.5767 6.08834C11.5767 9.11946 9.11946 11.5767 6.08834 11.5767V12.7767C9.7822 12.7767 12.7767 9.7822 12.7767 6.08834H11.5767ZM6.08834 0.6C9.11946 0.6 11.5767 3.05721 11.5767 6.08834H12.7767C12.7767 2.39447 9.7822 -0.6 6.08834 -0.6V0.6ZM0.6 6.08834C0.6 3.05721 3.05721 0.6 6.08834 0.6V-0.6C2.39447 -0.6 -0.6 2.39447 -0.6 6.08834H0.6ZM6.08834 11.5767C3.05721 11.5767 0.6 9.11946 0.6 6.08834H-0.6C-0.6 9.7822 2.39447 12.7767 6.08834 12.7767V11.5767ZM6.14651 2.44454C5.85266 2.44454 5.56281 2.54233 5.32972 2.76086L6.15045 3.6363C6.15013 3.6366 6.14844 3.6381 6.1454 3.63999C6.14235 3.64189 6.1392 3.6434 6.13646 3.64443C6.13377 3.64544 6.13267 3.64553 6.13381 3.64534C6.13503 3.64513 6.13909 3.64454 6.14651 3.64454V2.44454ZM6.96895 2.77416C6.73489 2.54169 6.43839 2.44454 6.14651 2.44454V3.64454C6.16097 3.64454 6.16055 3.64674 6.1509 3.64306C6.14628 3.64129 6.14089 3.63866 6.13543 3.63514C6.12996 3.6316 6.12589 3.62813 6.12333 3.62558L6.96895 2.77416ZM7.3123 3.60216C7.3123 3.29582 7.20241 2.99421 6.95795 2.76351L6.13432 3.63623C6.13243 3.63444 6.12899 3.63079 6.12515 3.62521C6.12129 3.6196 6.11807 3.61357 6.11568 3.60772C6.11062 3.59532 6.1123 3.59136 6.1123 3.60216H7.3123ZM6.97174 4.44372C7.2081 4.20736 7.3123 3.90623 7.3123 3.60216H6.1123C6.1123 3.61033 6.11163 3.61472 6.11142 3.61594C6.11122 3.61707 6.11138 3.61561 6.11265 3.61236C6.11394 3.60904 6.11585 3.60524 6.11826 3.60156C6.12066 3.5979 6.12263 3.59577 6.12321 3.59519L6.97174 4.44372ZM6.14651 4.77611C6.43973 4.77611 6.73741 4.67805 6.97174 4.44372L6.12321 3.59519C6.12571 3.59269 6.12975 3.5892 6.13523 3.58565C6.1407 3.58209 6.14612 3.57944 6.15079 3.57764C6.16054 3.57389 6.16103 3.57612 6.14651 3.57612V4.77611ZM5.32972 4.4598C5.56281 4.67832 5.85266 4.77611 6.14651 4.77611V3.57612C6.13909 3.57612 6.13503 3.57553 6.13381 3.57532C6.13267 3.57512 6.13377 3.57522 6.13646 3.57623C6.1392 3.57725 6.14235 3.57876 6.1454 3.58066C6.14844 3.58256 6.15014 3.58406 6.15045 3.58435L5.32972 4.4598ZM5.32423 4.45465L5.32973 4.45981L6.15044 3.58434L6.14494 3.57919L5.32423 4.45465ZM4.98072 3.60216C4.98072 3.89197 5.07254 4.18801 5.29686 4.42729L6.17231 3.60656C6.17357 3.6079 6.17564 3.61041 6.17778 3.61391C6.17992 3.6174 6.1813 3.62049 6.18204 3.62253C6.18364 3.62692 6.18072 3.62182 6.18072 3.60216H4.98072ZM5.31312 2.77693C5.07878 3.01127 4.98072 3.30894 4.98072 3.60216H6.18072C6.18072 3.58764 6.18294 3.58813 6.1792 3.59788C6.1774 3.60255 6.17474 3.60797 6.17119 3.61344C6.16763 3.61892 6.16415 3.62296 6.16164 3.62546L5.31312 2.77693ZM5.32274 2.76751L5.32003 2.77013L6.15472 3.63227L6.15743 3.62965L5.32274 2.76751ZM6.60614 4.25739H5.07443V5.45739H6.60614V4.25739ZM7.20614 8.35478V4.85739H6.00614V8.35478H7.20614ZM7.21035 8.52909C7.20812 8.49858 7.20614 8.44287 7.20614 8.35478H6.00614C6.00614 8.45488 6.00822 8.54379 6.01355 8.61665L7.21035 8.52909ZM7.21063 8.53545C7.21131 8.5399 7.21146 8.54165 7.21128 8.54001C7.21113 8.53854 7.21078 8.535 7.21035 8.52907L6.01355 8.61667C6.01592 8.64896 6.01924 8.68276 6.02426 8.71575L7.21063 8.53545ZM6.75796 8.04378C6.7569 8.04365 6.76083 8.04409 6.76887 8.04581C6.77638 8.04742 6.79135 8.05096 6.81154 8.05786L6.42335 9.19334C6.48673 9.21501 6.55029 9.22708 6.60754 9.23432L6.75796 8.04378ZM7.29999 8.10282L6.74782 8.04259L6.61768 9.23551L7.16985 9.29575L7.29999 8.10282ZM7.83492 9.13288V8.69929H6.63492V9.13288H7.83492ZM5.07443 9.73288H7.23492V8.53288H5.07443V9.73288ZM4.47443 8.69929V9.13288H5.67443V8.69929H4.47443ZM5.56153 8.04259L5.00936 8.10282L5.1395 9.29575L5.69167 9.23551L5.56153 8.04259ZM5.49781 8.05786C5.518 8.05096 5.53297 8.04742 5.54048 8.04581C5.54852 8.04409 5.55245 8.04365 5.55139 8.04378L5.70181 9.23432C5.75906 9.22708 5.82262 9.21501 5.886 9.19334L5.49781 8.05786ZM5.099 8.52908C5.09856 8.53501 5.09822 8.53855 5.09807 8.54001C5.09789 8.54164 5.09804 8.53988 5.09872 8.53543L6.28509 8.71577C6.29011 8.68277 6.29344 8.64896 6.2958 8.61666L5.099 8.52908ZM5.10321 8.35478C5.10321 8.44287 5.10123 8.49858 5.099 8.52908L6.2958 8.61666C6.30113 8.5438 6.30321 8.45488 6.30321 8.35478H5.10321ZM5.10321 5.6355V8.35478H6.30321V5.6355H5.10321ZM5.099 5.46119C5.10123 5.4917 5.10321 5.5474 5.10321 5.6355H6.30321C6.30321 5.53539 6.30113 5.44648 6.2958 5.37362L5.099 5.46119ZM5.09872 5.45484C5.09804 5.45039 5.09789 5.44863 5.09807 5.45027C5.09822 5.45173 5.09856 5.45527 5.099 5.46119L6.2958 5.37361C6.29343 5.34132 6.29011 5.3075 6.28509 5.2745L5.09872 5.45484ZM5.55141 5.9465C5.55229 5.94661 5.54826 5.94614 5.54021 5.9444C5.53266 5.94278 5.51779 5.93924 5.4978 5.93241L5.88601 4.79694C5.82324 4.77548 5.76038 4.76346 5.70382 4.75621L5.55141 5.9465ZM5.02011 5.8986L5.57329 5.94889L5.68194 4.75382L5.12875 4.70353L5.02011 5.8986ZM4.47443 4.85739V5.30107H5.67443V4.85739H4.47443Z" fill="white" mask="url(#path-1-inside-1_1064:5205)"/>
</svg>
